<mxfile host="app.diagrams.net" modified="2023-04-09T17:31:01.168Z" agent="Mozilla/5.0 (Windows NT 10.0; Win64; x64) AppleWebKit/537.36 (KHTML, like Gecko) Chrome/112.0.0.0 Safari/537.36 Edg/112.0.1722.34" version="21.1.4" etag="r_h6TocEmsx8uiwnpALc" type="github">
  <diagram name="Strona-1" id="pwhX5YmpFsH434d6XmRk">
    <mxGraphModel>
      <root>
        <mxCell id="0" />
        <mxCell id="1" parent="0" />
      </root>
    </mxGraphModel>
  </diagram>
</mxfile>
